<svg width="421" height="447" viewBox="0 0 421 447" fill="none" xmlns="http://www.w3.org/2000/svg">
<path d="M163.81 396.554C180.81 402.054 192.811 388.054 192.811 388.054C192.811 388.054 196.811 385.554 205.811 371.054C214.811 356.554 233.746 311.298 256.311 275.554C277.095 242.63 290.958 225.526 315.811 195.554C332.847 175.007 351.311 156.054 361.311 144.554C371.311 133.054 380.811 110.554 380.311 108.054C379.811 105.554 388.811 130.554 388.811 130.554C388.811 130.554 396.398 154.669 392.811 169.554C390.966 177.206 390.811 180.554 384.811 188.054C378.811 195.554 368.347 201.724 358.311 211.054C335.741 232.034 323.465 244.527 304.811 269.054C284.599 295.628 260.311 342.054 260.311 342.054C260.311 342.054 286.215 309.253 304.811 290.054C324.43 269.797 335.905 258.678 358.311 241.554C381.12 224.12 420.311 202.054 420.311 202.054C420.311 202.054 420.908 219.744 420.311 231.054C419.72 242.23 417.311 259.554 417.311 259.554C417.311 259.554 393.186 269.802 378.311 277.554C347.908 293.396 331.514 304.055 304.811 325.554C284.366 342.013 255.811 371.554 255.811 371.554C255.811 371.554 286.574 347.617 308.311 335.554C325.383 326.078 335.702 321.895 353.689 314.603L353.811 314.554C371.872 307.231 400.811 298.054 400.811 298.054C400.811 298.054 406.811 308.554 411.811 320.054C415.506 328.554 419.811 342.054 418.311 342.554C416.811 343.054 364.811 344.866 314.811 363.054C282.966 374.637 262.811 381.554 237.811 403.054C212.811 424.554 225.311 413.554 216.311 422.554C207.311 431.554 195.534 445.56 193.311 446.054C188.811 447.054 177.811 435.554 168.311 421.054C158.811 406.554 147.677 384.554 147.677 384.554C152.621 390.198 158.121 394.713 163.81 396.554Z" fill="#FFFEFF"/>
<path d="M131.811 284.554L104.811 239.554L83.3105 276.054C83.3105 276.054 86.7782 284.256 89.8105 289.054C92.8573 293.874 98.8105 300.554 98.8105 300.554C98.8105 300.554 114.865 300.785 124.811 303.054C133.903 305.128 147.311 311.054 147.311 311.054C147.311 311.054 159.535 319.521 165.811 326.554C171.904 333.382 178.811 346.054 178.811 346.054L196.311 346.554C196.311 346.554 207.811 344.804 213.811 335.054C219.811 325.304 231.311 298.054 231.311 298.054C231.311 298.054 219.712 303.749 211.811 306.054C201.392 309.092 184.311 310.054 184.311 310.054C184.311 310.054 161.485 311.614 149.811 304.554C140.819 299.116 131.811 284.554 131.811 284.554Z" fill="#FFFEFF"/>
<path d="M163.81 396.554C180.81 402.054 192.811 388.054 192.811 388.054C192.811 388.054 196.811 385.554 205.811 371.054C214.811 356.554 233.746 311.298 256.311 275.554C277.095 242.63 290.958 225.526 315.811 195.554C332.847 175.007 351.311 156.054 361.311 144.554C371.311 133.054 380.811 110.554 380.311 108.054C379.811 105.554 388.811 130.554 388.811 130.554C388.811 130.554 396.398 154.669 392.811 169.554C390.966 177.206 390.811 180.554 384.811 188.054C378.811 195.554 368.347 201.724 358.311 211.054C335.741 232.034 323.465 244.527 304.811 269.054C284.599 295.628 260.311 342.054 260.311 342.054C260.311 342.054 286.215 309.253 304.811 290.054C324.43 269.797 335.905 258.678 358.311 241.554C381.12 224.12 420.311 202.054 420.311 202.054C420.311 202.054 420.908 219.744 420.311 231.054C419.72 242.23 417.311 259.554 417.311 259.554C417.311 259.554 393.186 269.802 378.311 277.554C347.908 293.396 331.514 304.055 304.811 325.554C284.366 342.013 255.811 371.554 255.811 371.554C255.811 371.554 286.574 347.617 308.311 335.554C325.383 326.078 335.702 321.895 353.689 314.603L353.811 314.554C371.872 307.231 400.811 298.054 400.811 298.054C400.811 298.054 406.811 308.554 411.811 320.054C415.506 328.554 419.811 342.054 418.311 342.554C416.811 343.054 364.811 344.866 314.811 363.054C282.966 374.637 262.811 381.554 237.811 403.054C212.811 424.554 225.311 413.554 216.311 422.554C207.311 431.554 195.534 445.56 193.311 446.054C188.811 447.054 177.811 435.554 168.311 421.054C158.811 406.554 147.677 384.554 147.677 384.554C152.621 390.198 158.121 394.713 163.81 396.554Z" stroke="#FFFFFE"/>
<path d="M131.811 284.554L104.811 239.554L83.3105 276.054C83.3105 276.054 86.7782 284.256 89.8105 289.054C92.8573 293.874 98.8105 300.554 98.8105 300.554C98.8105 300.554 114.865 300.785 124.811 303.054C133.903 305.128 147.311 311.054 147.311 311.054C147.311 311.054 159.535 319.521 165.811 326.554C171.904 333.382 178.811 346.054 178.811 346.054L196.311 346.554C196.311 346.554 207.811 344.804 213.811 335.054C219.811 325.304 231.311 298.054 231.311 298.054C231.311 298.054 219.712 303.749 211.811 306.054C201.392 309.092 184.311 310.054 184.311 310.054C184.311 310.054 161.485 311.614 149.811 304.554C140.819 299.116 131.811 284.554 131.811 284.554Z" stroke="#FFFFFE"/>
<path d="M267.809 109.554C280.309 129.554 290.309 147.054 290.309 147.054C290.309 147.054 315.083 143.886 345.309 120.554C373.809 98.5537 355.809 50.0535 355.809 50.0535C355.809 50.0535 336.642 72.7842 316.309 87.0537C294.314 102.488 267.809 109.554 267.809 109.554Z" fill="white"/>
<path d="M70.8107 188.054L48.3094 221.554C48.3094 221.554 8.76132 161.554 5.31073 153.054C1.86014 144.554 0.814401 132.307 3.30993 127.054C4.90184 123.702 10.8105 119.054 23.8106 117.554C36.8107 116.054 205.809 117.554 205.809 117.554L226.309 155.054L51.3107 153.054L70.8107 188.054Z" fill="white"/>
<path d="M50.8099 310.054L140.31 161.554C140.31 161.554 129.847 161.635 119.311 162.054C110.24 162.414 103.311 161.554 97.3106 166.054C91.3106 170.554 74.9444 200.108 52.8106 235.054C24.5364 279.693 -9.18939 323.054 2.3102 338.554C8.77133 347.262 44.8816 346.843 75.3106 347.554C113.811 345.554 118.334 350.144 123.811 352.554C129.736 355.161 133.879 364.947 139.811 374.054C142.205 377.73 144.85 381.326 147.677 384.554C152.621 390.198 158.121 394.713 163.81 396.554C180.81 402.054 192.811 388.054 192.811 388.054C192.811 388.054 175.811 361.054 162.311 338.554C152.046 324.81 142.003 316.243 132.81 314.054C111.81 309.054 50.8099 310.054 50.8099 310.054Z" fill="white"/>
<path d="M159.811 56.0537C148.811 72.5537 127.811 106.554 127.811 106.554H170.811L192.311 77.0537L279.811 224.554L295.311 204.554C295.311 204.554 304.811 193.829 297.811 181.054C290.811 168.279 240.311 80.0537 226.309 56.0537L226.045 55.6009C212.213 31.8903 204.729 19.06 191.811 20.0537C178.811 21.0537 170.811 39.5537 159.811 56.0537Z" fill="white"/>
<path d="M267.809 109.554C280.309 129.554 290.309 147.054 290.309 147.054C290.309 147.054 315.083 143.886 345.309 120.554C373.809 98.5537 355.809 50.0535 355.809 50.0535C355.809 50.0535 336.642 72.7842 316.309 87.0537C294.314 102.488 267.809 109.554 267.809 109.554Z" stroke="black"/>
<path d="M70.8107 188.054L48.3094 221.554C48.3094 221.554 8.76132 161.554 5.31073 153.054C1.86014 144.554 0.814401 132.307 3.30993 127.054C4.90184 123.702 10.8105 119.054 23.8106 117.554C36.8107 116.054 205.809 117.554 205.809 117.554L226.309 155.054L51.3107 153.054L70.8107 188.054Z" stroke="black"/>
<path d="M50.8099 310.054L140.31 161.554C140.31 161.554 129.847 161.635 119.311 162.054C110.24 162.414 103.311 161.554 97.3106 166.054C91.3106 170.554 74.9444 200.108 52.8106 235.054C24.5364 279.693 -9.18939 323.054 2.3102 338.554C8.77133 347.262 44.8816 346.843 75.3106 347.554C113.811 345.554 118.334 350.144 123.811 352.554C129.736 355.161 133.879 364.947 139.811 374.054C142.205 377.73 144.85 381.326 147.677 384.554C152.621 390.198 158.121 394.713 163.81 396.554C180.81 402.054 192.811 388.054 192.811 388.054C192.811 388.054 175.811 361.054 162.311 338.554C152.046 324.81 142.003 316.243 132.81 314.054C111.81 309.054 50.8099 310.054 50.8099 310.054Z" stroke="black"/>
<path d="M159.811 56.0537C148.811 72.5537 127.811 106.554 127.811 106.554H170.811L192.311 77.0537L279.811 224.554L295.311 204.554C295.311 204.554 304.811 193.829 297.811 181.054C290.811 168.279 240.311 80.0537 226.309 56.0537L226.045 55.6009C212.213 31.8903 204.729 19.06 191.811 20.0537C178.811 21.0537 170.811 39.5537 159.811 56.0537Z" stroke="black"/>
</svg>
