<svg width="1896" height="484" viewBox="0 0 1896 484" fill="none" xmlns="http://www.w3.org/2000/svg">
<path d="M163.81 411.819C180.81 417.319 192.811 403.319 192.811 403.319C192.811 403.319 196.811 400.819 205.811 386.319C214.811 371.819 233.746 326.562 256.311 290.819C277.095 257.895 290.958 240.791 315.811 210.819C332.847 190.272 351.311 171.319 361.311 159.819C371.311 148.319 380.811 125.819 380.311 123.319C379.811 120.819 388.811 145.819 388.811 145.819C388.811 145.819 396.398 169.934 392.811 184.819C390.966 192.471 390.811 195.819 384.811 203.319C378.811 210.819 368.347 216.989 358.311 226.319C335.741 247.299 323.465 259.791 304.811 284.319C284.599 310.893 260.311 357.319 260.311 357.319C260.311 357.319 286.215 324.518 304.811 305.319C324.43 285.062 335.905 273.943 358.311 256.819C381.12 239.385 420.311 217.319 420.311 217.319C420.311 217.319 420.908 235.009 420.311 246.319C419.72 257.494 417.311 274.819 417.311 274.819C417.311 274.819 393.186 285.067 378.311 292.819C347.908 308.661 331.514 319.32 304.811 340.819C284.366 357.278 255.811 386.819 255.811 386.819C255.811 386.819 286.574 362.882 308.311 350.819C325.383 341.343 335.702 337.16 353.689 329.868L353.811 329.819C371.872 322.496 400.811 313.319 400.811 313.319C400.811 313.319 406.811 323.819 411.811 335.319C415.506 343.819 419.811 357.319 418.311 357.819C416.811 358.319 364.811 360.13 314.811 378.319C282.966 389.902 262.811 396.819 237.811 418.319C212.811 439.819 225.311 428.819 216.311 437.819C207.311 446.819 195.534 460.824 193.311 461.319C188.811 462.319 177.811 450.819 168.311 436.319C158.811 421.819 147.677 399.819 147.677 399.819C152.621 405.463 158.121 409.978 163.81 411.819Z" fill="#101F3A"/>
<path d="M131.811 299.819L104.811 254.819L83.3105 291.319C83.3105 291.319 86.7782 299.52 89.8105 304.319C92.8573 309.139 98.8105 315.819 98.8105 315.819C98.8105 315.819 114.865 316.05 124.811 318.319C133.903 320.393 147.311 326.319 147.311 326.319C147.311 326.319 159.535 334.786 165.811 341.819C171.904 348.647 178.811 361.319 178.811 361.319L196.311 361.819C196.311 361.819 207.811 360.069 213.811 350.319C219.811 340.569 231.311 313.319 231.311 313.319C231.311 313.319 219.712 319.014 211.811 321.319C201.392 324.357 184.311 325.319 184.311 325.319C184.311 325.319 161.485 326.879 149.811 319.819C140.819 314.381 131.811 299.819 131.811 299.819Z" fill="#101F3A"/>
<path d="M163.81 411.819C180.81 417.319 192.811 403.319 192.811 403.319C192.811 403.319 196.811 400.819 205.811 386.319C214.811 371.819 233.746 326.562 256.311 290.819C277.095 257.895 290.958 240.791 315.811 210.819C332.847 190.272 351.311 171.319 361.311 159.819C371.311 148.319 380.811 125.819 380.311 123.319C379.811 120.819 388.811 145.819 388.811 145.819C388.811 145.819 396.398 169.934 392.811 184.819C390.966 192.471 390.811 195.819 384.811 203.319C378.811 210.819 368.347 216.989 358.311 226.319C335.741 247.299 323.465 259.791 304.811 284.319C284.599 310.893 260.311 357.319 260.311 357.319C260.311 357.319 286.215 324.518 304.811 305.319C324.43 285.062 335.905 273.943 358.311 256.819C381.12 239.385 420.311 217.319 420.311 217.319C420.311 217.319 420.908 235.009 420.311 246.319C419.72 257.494 417.311 274.819 417.311 274.819C417.311 274.819 393.186 285.067 378.311 292.819C347.908 308.661 331.514 319.32 304.811 340.819C284.366 357.278 255.811 386.819 255.811 386.819C255.811 386.819 286.574 362.882 308.311 350.819C325.383 341.343 335.702 337.16 353.689 329.868L353.811 329.819C371.872 322.496 400.811 313.319 400.811 313.319C400.811 313.319 406.811 323.819 411.811 335.319C415.506 343.819 419.811 357.319 418.311 357.819C416.811 358.319 364.811 360.13 314.811 378.319C282.966 389.902 262.811 396.819 237.811 418.319C212.811 439.819 225.311 428.819 216.311 437.819C207.311 446.819 195.534 460.824 193.311 461.319C188.811 462.319 177.811 450.819 168.311 436.319C158.811 421.819 147.677 399.819 147.677 399.819C152.621 405.463 158.121 409.978 163.81 411.819Z" stroke="black"/>
<path d="M131.811 299.819L104.811 254.819L83.3105 291.319C83.3105 291.319 86.7782 299.52 89.8105 304.319C92.8573 309.139 98.8105 315.819 98.8105 315.819C98.8105 315.819 114.865 316.05 124.811 318.319C133.903 320.393 147.311 326.319 147.311 326.319C147.311 326.319 159.535 334.786 165.811 341.819C171.904 348.647 178.811 361.319 178.811 361.319L196.311 361.819C196.311 361.819 207.811 360.069 213.811 350.319C219.811 340.569 231.311 313.319 231.311 313.319C231.311 313.319 219.712 319.014 211.811 321.319C201.392 324.357 184.311 325.319 184.311 325.319C184.311 325.319 161.485 326.879 149.811 319.819C140.819 314.381 131.811 299.819 131.811 299.819Z" stroke="black"/>
<path d="M267.809 124.818C280.309 144.818 290.309 162.319 290.309 162.319C290.309 162.319 315.083 159.151 345.309 135.819C373.809 113.819 355.809 65.3184 355.809 65.3184C355.809 65.3184 336.642 88.0491 316.309 102.319C294.314 117.753 267.809 124.818 267.809 124.818Z" fill="#2A55BA"/>
<path d="M70.8107 203.319L48.3094 236.819C48.3094 236.819 8.76132 176.819 5.31073 168.319C1.86014 159.819 0.814401 147.572 3.30993 142.319C4.90184 138.967 10.8105 134.319 23.8106 132.819C36.8107 131.319 205.809 132.819 205.809 132.819L226.309 170.319L51.3107 168.319L70.8107 203.319Z" fill="#2A55BA"/>
<path d="M50.8099 325.319L140.31 176.819C140.31 176.819 129.847 176.9 119.311 177.319C110.24 177.679 103.311 176.819 97.3106 181.319C91.3106 185.819 74.9444 215.373 52.8106 250.319C24.5364 294.958 -9.18939 338.319 2.3102 353.819C8.77133 362.527 44.8816 362.108 75.3106 362.819C113.811 360.819 118.334 365.409 123.811 367.819C129.736 370.426 133.879 380.212 139.811 389.319C142.205 392.995 144.85 396.591 147.677 399.819C152.621 405.463 158.121 409.978 163.81 411.819C180.81 417.319 192.811 403.319 192.811 403.319C192.811 403.319 175.811 376.319 162.311 353.819C152.046 340.074 142.003 331.508 132.81 329.319C111.81 324.319 50.8099 325.319 50.8099 325.319Z" fill="#2A55BA"/>
<path d="M159.811 71.3186C148.811 87.8186 127.811 121.819 127.811 121.819H170.811L192.311 92.3186L279.811 239.819L295.311 219.819C295.311 219.819 304.811 209.094 297.811 196.319C290.811 183.544 240.311 95.3186 226.309 71.3186L226.045 70.8658C212.213 47.1552 204.729 34.3249 191.811 35.3186C178.811 36.3186 170.811 54.8186 159.811 71.3186Z" fill="#2A55BA"/>
<path d="M267.809 124.818C280.309 144.818 290.309 162.319 290.309 162.319C290.309 162.319 315.083 159.151 345.309 135.819C373.809 113.819 355.809 65.3184 355.809 65.3184C355.809 65.3184 336.642 88.0491 316.309 102.319C294.314 117.753 267.809 124.818 267.809 124.818Z" stroke="black"/>
<path d="M70.8107 203.319L48.3094 236.819C48.3094 236.819 8.76132 176.819 5.31073 168.319C1.86014 159.819 0.814401 147.572 3.30993 142.319C4.90184 138.967 10.8105 134.319 23.8106 132.819C36.8107 131.319 205.809 132.819 205.809 132.819L226.309 170.319L51.3107 168.319L70.8107 203.319Z" stroke="black"/>
<path d="M50.8099 325.319L140.31 176.819C140.31 176.819 129.847 176.9 119.311 177.319C110.24 177.679 103.311 176.819 97.3106 181.319C91.3106 185.819 74.9444 215.373 52.8106 250.319C24.5364 294.958 -9.18939 338.319 2.3102 353.819C8.77133 362.527 44.8816 362.108 75.3106 362.819C113.811 360.819 118.334 365.409 123.811 367.819C129.736 370.426 133.879 380.212 139.811 389.319C142.205 392.995 144.85 396.591 147.677 399.819C152.621 405.463 158.121 409.978 163.81 411.819C180.81 417.319 192.811 403.319 192.811 403.319C192.811 403.319 175.811 376.319 162.311 353.819C152.046 340.074 142.003 331.508 132.81 329.319C111.81 324.319 50.8099 325.319 50.8099 325.319Z" stroke="black"/>
<path d="M159.811 71.3186C148.811 87.8186 127.811 121.819 127.811 121.819H170.811L192.311 92.3186L279.811 239.819L295.311 219.819C295.311 219.819 304.811 209.094 297.811 196.319C290.811 183.544 240.311 95.3186 226.309 71.3186L226.045 70.8658C212.213 47.1552 204.729 34.3249 191.811 35.3186C178.811 36.3186 170.811 54.8186 159.811 71.3186Z" stroke="black"/>
<path d="M461.665 387V96.0909H578.142C599.544 96.0909 617.394 99.2633 631.693 105.608C645.993 111.953 656.741 120.759 663.938 132.028C671.135 143.203 674.733 156.081 674.733 170.665C674.733 182.028 672.461 192.019 667.915 200.636C663.37 209.159 657.12 216.167 649.165 221.659C641.305 227.057 632.309 230.892 622.176 233.165V236.006C633.256 236.479 643.625 239.604 653.284 245.381C663.038 251.157 670.945 259.254 677.006 269.67C683.067 279.992 686.097 292.303 686.097 306.602C686.097 322.038 682.262 335.816 674.591 347.938C667.015 359.964 655.794 369.481 640.926 376.489C626.059 383.496 607.735 387 585.955 387H461.665ZM523.171 336.716H573.313C590.453 336.716 602.953 333.449 610.813 326.915C618.673 320.286 622.603 311.479 622.603 300.494C622.603 292.445 620.661 285.343 616.779 279.188C612.896 273.032 607.356 268.203 600.159 264.699C593.057 261.195 584.582 259.443 574.733 259.443H523.171V336.716ZM523.171 217.824H568.767C577.195 217.824 584.676 216.356 591.211 213.42C597.839 210.39 603.048 206.129 606.836 200.636C610.718 195.144 612.659 188.562 612.659 180.892C612.659 170.381 608.919 161.905 601.438 155.466C594.051 149.027 583.54 145.807 569.904 145.807H523.171V217.824ZM724.982 387V168.818H785.493V387H724.982ZM755.38 140.693C746.383 140.693 738.666 137.71 732.226 131.744C725.881 125.684 722.709 118.439 722.709 110.011C722.709 101.678 725.881 94.5284 732.226 88.5625C738.666 82.5019 746.383 79.4716 755.38 79.4716C764.376 79.4716 772.046 82.5019 778.391 88.5625C784.83 94.5284 788.05 101.678 788.05 110.011C788.05 118.439 784.83 125.684 778.391 131.744C772.046 137.71 764.376 140.693 755.38 140.693ZM835.103 387V96.0909H1027.72V146.801H896.608V216.119H1014.93V266.83H896.608V387H835.103ZM1150.51 391.261C1128.45 391.261 1109.37 386.574 1093.27 377.199C1077.27 367.729 1064.91 354.566 1056.2 337.71C1047.48 320.759 1043.13 301.11 1043.13 278.761C1043.13 256.223 1047.48 236.527 1056.2 219.67C1064.91 202.72 1077.27 189.557 1093.27 180.182C1109.37 170.712 1128.45 165.977 1150.51 165.977C1172.58 165.977 1191.61 170.712 1207.62 180.182C1223.72 189.557 1236.12 202.72 1244.83 219.67C1253.54 236.527 1257.9 256.223 1257.9 278.761C1257.9 301.11 1253.54 320.759 1244.83 337.71C1236.12 354.566 1223.72 367.729 1207.62 377.199C1191.61 386.574 1172.58 391.261 1150.51 391.261ZM1150.8 344.386C1160.84 344.386 1169.22 341.545 1175.94 335.864C1182.66 330.087 1187.73 322.227 1191.14 312.284C1194.64 302.341 1196.4 291.025 1196.4 278.335C1196.4 265.646 1194.64 254.33 1191.14 244.386C1187.73 234.443 1182.66 226.583 1175.94 220.807C1169.22 215.03 1160.84 212.142 1150.8 212.142C1140.67 212.142 1132.14 215.03 1125.23 220.807C1118.41 226.583 1113.25 234.443 1109.75 244.386C1106.34 254.33 1104.63 265.646 1104.63 278.335C1104.63 291.025 1106.34 302.341 1109.75 312.284C1113.25 322.227 1118.41 330.087 1125.23 335.864C1132.14 341.545 1140.67 344.386 1150.8 344.386ZM1401.51 387H1298.38V96.0909H1402.36C1431.62 96.0909 1456.81 101.915 1477.93 113.562C1499.05 125.116 1515.29 141.735 1526.65 163.42C1538.11 185.106 1543.84 211.053 1543.84 241.261C1543.84 271.564 1538.11 297.606 1526.65 319.386C1515.29 341.167 1498.95 357.881 1477.65 369.528C1456.43 381.176 1431.05 387 1401.51 387ZM1359.89 334.301H1398.95C1417.13 334.301 1432.43 331.081 1444.83 324.642C1457.33 318.108 1466.71 308.023 1472.96 294.386C1479.3 280.655 1482.47 262.947 1482.47 241.261C1482.47 219.765 1479.3 202.199 1472.96 188.562C1466.71 174.926 1457.38 164.888 1444.97 158.449C1432.57 152.009 1417.28 148.79 1399.09 148.79H1359.89V334.301ZM1687.69 391.261C1665.25 391.261 1645.93 386.716 1629.74 377.625C1613.64 368.439 1601.24 355.466 1592.52 338.705C1583.81 321.848 1579.46 301.915 1579.46 278.903C1579.46 256.46 1583.81 236.763 1592.52 219.812C1601.24 202.862 1613.5 189.652 1629.31 180.182C1645.22 170.712 1663.88 165.977 1685.28 165.977C1699.67 165.977 1713.07 168.297 1725.48 172.938C1737.98 177.483 1748.87 184.348 1758.15 193.534C1767.52 202.72 1774.82 214.273 1780.02 228.193C1785.23 242.019 1787.84 258.212 1787.84 276.773V293.392H1603.6V255.892H1730.88C1730.88 247.18 1728.98 239.462 1725.19 232.739C1721.41 226.015 1716.15 220.759 1709.43 216.972C1702.8 213.089 1695.08 211.148 1686.27 211.148C1677.09 211.148 1668.94 213.278 1661.84 217.54C1654.84 221.706 1649.34 227.341 1645.37 234.443C1641.39 241.451 1639.35 249.263 1639.26 257.881V293.534C1639.26 304.33 1641.25 313.657 1645.22 321.517C1649.3 329.377 1655.02 335.438 1662.41 339.699C1669.8 343.96 1678.56 346.091 1688.69 346.091C1695.41 346.091 1701.57 345.144 1707.16 343.25C1712.74 341.356 1717.52 338.515 1721.5 334.727C1725.48 330.939 1728.51 326.299 1730.59 320.807L1786.56 324.5C1783.72 337.947 1777.89 349.689 1769.09 359.727C1760.37 369.67 1749.11 377.436 1735.28 383.023C1721.55 388.515 1705.69 391.261 1687.69 391.261Z" fill="#101F3A"/>
</svg>
