<svg width="1866" height="666" viewBox="0 0 1866 666" fill="none" xmlns="http://www.w3.org/2000/svg">
<path d="M163.81 417.554C180.81 423.054 192.811 409.054 192.811 409.054C192.811 409.054 196.811 406.554 205.811 392.054C214.811 377.554 233.746 332.298 256.311 296.554C277.095 263.63 290.958 246.526 315.811 216.554C332.847 196.007 351.311 177.054 361.311 165.554C371.311 154.054 380.811 131.554 380.311 129.054C379.811 126.554 388.811 151.554 388.811 151.554C388.811 151.554 396.398 175.669 392.811 190.554C390.966 198.206 390.811 201.554 384.811 209.054C378.811 216.554 368.347 222.724 358.311 232.054C335.741 253.034 323.465 265.527 304.811 290.054C284.599 316.628 260.311 363.054 260.311 363.054C260.311 363.054 286.215 330.253 304.811 311.054C324.43 290.797 335.905 279.678 358.311 262.554C381.12 245.12 420.311 223.054 420.311 223.054C420.311 223.054 420.908 240.744 420.311 252.054C419.72 263.23 417.311 280.554 417.311 280.554C417.311 280.554 393.186 290.802 378.311 298.554C347.908 314.396 331.514 325.055 304.811 346.554C284.366 363.013 255.811 392.554 255.811 392.554C255.811 392.554 286.574 368.617 308.311 356.554C325.383 347.078 335.702 342.895 353.689 335.603L353.811 335.554C371.872 328.231 400.811 319.054 400.811 319.054C400.811 319.054 406.811 329.554 411.811 341.054C415.506 349.554 419.811 363.054 418.311 363.554C416.811 364.054 364.811 365.866 314.811 384.054C282.966 395.637 262.811 402.554 237.811 424.054C212.811 445.554 225.311 434.554 216.311 443.554C207.311 452.554 195.534 466.56 193.311 467.054C188.811 468.054 177.811 456.554 168.311 442.054C158.811 427.554 147.677 405.554 147.677 405.554C152.621 411.198 158.121 415.713 163.81 417.554Z" fill="#FFFEFF"/>
<path d="M131.811 305.554L104.811 260.554L83.3105 297.054C83.3105 297.054 86.7782 305.256 89.8105 310.054C92.8573 314.874 98.8105 321.554 98.8105 321.554C98.8105 321.554 114.865 321.785 124.811 324.054C133.903 326.128 147.311 332.054 147.311 332.054C147.311 332.054 159.535 340.521 165.811 347.554C171.904 354.382 178.811 367.054 178.811 367.054L196.311 367.554C196.311 367.554 207.811 365.804 213.811 356.054C219.811 346.304 231.311 319.054 231.311 319.054C231.311 319.054 219.712 324.749 211.811 327.054C201.392 330.092 184.311 331.054 184.311 331.054C184.311 331.054 161.485 332.614 149.811 325.554C140.819 320.116 131.811 305.554 131.811 305.554Z" fill="#FFFEFF"/>
<path d="M163.81 417.554C180.81 423.054 192.811 409.054 192.811 409.054C192.811 409.054 196.811 406.554 205.811 392.054C214.811 377.554 233.746 332.298 256.311 296.554C277.095 263.63 290.958 246.526 315.811 216.554C332.847 196.007 351.311 177.054 361.311 165.554C371.311 154.054 380.811 131.554 380.311 129.054C379.811 126.554 388.811 151.554 388.811 151.554C388.811 151.554 396.398 175.669 392.811 190.554C390.966 198.206 390.811 201.554 384.811 209.054C378.811 216.554 368.347 222.724 358.311 232.054C335.741 253.034 323.465 265.527 304.811 290.054C284.599 316.628 260.311 363.054 260.311 363.054C260.311 363.054 286.215 330.253 304.811 311.054C324.43 290.797 335.905 279.678 358.311 262.554C381.12 245.12 420.311 223.054 420.311 223.054C420.311 223.054 420.908 240.744 420.311 252.054C419.72 263.23 417.311 280.554 417.311 280.554C417.311 280.554 393.186 290.802 378.311 298.554C347.908 314.396 331.514 325.055 304.811 346.554C284.366 363.013 255.811 392.554 255.811 392.554C255.811 392.554 286.574 368.617 308.311 356.554C325.383 347.078 335.702 342.895 353.689 335.603L353.811 335.554C371.872 328.231 400.811 319.054 400.811 319.054C400.811 319.054 406.811 329.554 411.811 341.054C415.506 349.554 419.811 363.054 418.311 363.554C416.811 364.054 364.811 365.866 314.811 384.054C282.966 395.637 262.811 402.554 237.811 424.054C212.811 445.554 225.311 434.554 216.311 443.554C207.311 452.554 195.534 466.56 193.311 467.054C188.811 468.054 177.811 456.554 168.311 442.054C158.811 427.554 147.677 405.554 147.677 405.554C152.621 411.198 158.121 415.713 163.81 417.554Z" stroke="black"/>
<path d="M131.811 305.554L104.811 260.554L83.3105 297.054C83.3105 297.054 86.7782 305.256 89.8105 310.054C92.8573 314.874 98.8105 321.554 98.8105 321.554C98.8105 321.554 114.865 321.785 124.811 324.054C133.903 326.128 147.311 332.054 147.311 332.054C147.311 332.054 159.535 340.521 165.811 347.554C171.904 354.382 178.811 367.054 178.811 367.054L196.311 367.554C196.311 367.554 207.811 365.804 213.811 356.054C219.811 346.304 231.311 319.054 231.311 319.054C231.311 319.054 219.712 324.749 211.811 327.054C201.392 330.092 184.311 331.054 184.311 331.054C184.311 331.054 161.485 332.614 149.811 325.554C140.819 320.116 131.811 305.554 131.811 305.554Z" stroke="black"/>
<path d="M267.809 130.554C280.309 150.554 290.309 168.054 290.309 168.054C290.309 168.054 315.083 164.886 345.309 141.554C373.809 119.554 355.809 71.0535 355.809 71.0535C355.809 71.0535 336.642 93.7842 316.309 108.054C294.314 123.488 267.809 130.554 267.809 130.554Z" fill="#2A55BA"/>
<path d="M70.8107 209.054L48.3094 242.554C48.3094 242.554 8.76132 182.554 5.31073 174.054C1.86014 165.554 0.814401 153.307 3.30993 148.054C4.90184 144.702 10.8105 140.054 23.8106 138.554C36.8107 137.054 205.809 138.554 205.809 138.554L226.309 176.054L51.3107 174.054L70.8107 209.054Z" fill="#2A55BA"/>
<path d="M50.8099 331.054L140.31 182.554C140.31 182.554 129.847 182.635 119.311 183.054C110.24 183.414 103.311 182.554 97.3106 187.054C91.3106 191.554 74.9444 221.108 52.8106 256.054C24.5364 300.693 -9.18939 344.054 2.3102 359.554C8.77133 368.262 44.8816 367.843 75.3106 368.554C113.811 366.554 118.334 371.144 123.811 373.554C129.736 376.161 133.879 385.947 139.811 395.054C142.205 398.73 144.85 402.326 147.677 405.554C152.621 411.198 158.121 415.713 163.81 417.554C180.81 423.054 192.811 409.054 192.811 409.054C192.811 409.054 175.811 382.054 162.311 359.554C152.046 345.81 142.003 337.243 132.81 335.054C111.81 330.054 50.8099 331.054 50.8099 331.054Z" fill="#2A55BA"/>
<path d="M159.811 77.0537C148.811 93.5537 127.811 127.554 127.811 127.554H170.811L192.311 98.0537L279.811 245.554L295.311 225.554C295.311 225.554 304.811 214.829 297.811 202.054C290.811 189.279 240.311 101.054 226.309 77.0537L226.045 76.6009C212.213 52.8903 204.729 40.06 191.811 41.0537C178.811 42.0537 170.811 60.5537 159.811 77.0537Z" fill="#2A55BA"/>
<path d="M267.809 130.554C280.309 150.554 290.309 168.054 290.309 168.054C290.309 168.054 315.083 164.886 345.309 141.554C373.809 119.554 355.809 71.0535 355.809 71.0535C355.809 71.0535 336.642 93.7842 316.309 108.054C294.314 123.488 267.809 130.554 267.809 130.554Z" stroke="black"/>
<path d="M70.8107 209.054L48.3094 242.554C48.3094 242.554 8.76132 182.554 5.31073 174.054C1.86014 165.554 0.814401 153.307 3.30993 148.054C4.90184 144.702 10.8105 140.054 23.8106 138.554C36.8107 137.054 205.809 138.554 205.809 138.554L226.309 176.054L51.3107 174.054L70.8107 209.054Z" stroke="black"/>
<path d="M50.8099 331.054L140.31 182.554C140.31 182.554 129.847 182.635 119.311 183.054C110.24 183.414 103.311 182.554 97.3106 187.054C91.3106 191.554 74.9444 221.108 52.8106 256.054C24.5364 300.693 -9.18939 344.054 2.3102 359.554C8.77133 368.262 44.8816 367.843 75.3106 368.554C113.811 366.554 118.334 371.144 123.811 373.554C129.736 376.161 133.879 385.947 139.811 395.054C142.205 398.73 144.85 402.326 147.677 405.554C152.621 411.198 158.121 415.713 163.81 417.554C180.81 423.054 192.811 409.054 192.811 409.054C192.811 409.054 175.811 382.054 162.311 359.554C152.046 345.81 142.003 337.243 132.81 335.054C111.81 330.054 50.8099 331.054 50.8099 331.054Z" stroke="black"/>
<path d="M159.811 77.0537C148.811 93.5537 127.811 127.554 127.811 127.554H170.811L192.311 98.0537L279.811 245.554L295.311 225.554C295.311 225.554 304.811 214.829 297.811 202.054C290.811 189.279 240.311 101.054 226.309 77.0537L226.045 76.6009C212.213 52.8903 204.729 40.06 191.811 41.0537C178.811 42.0537 170.811 60.5537 159.811 77.0537Z" stroke="black"/>
<path d="M460.284 387V96.0909H576.761C598.163 96.0909 616.013 99.2633 630.312 105.608C644.612 111.953 655.36 120.759 662.557 132.028C669.754 143.203 673.352 156.081 673.352 170.665C673.352 182.028 671.08 192.019 666.534 200.636C661.989 209.159 655.739 216.167 647.784 221.659C639.924 227.057 630.928 230.892 620.795 233.165V236.006C631.875 236.479 642.244 239.604 651.903 245.381C661.657 251.157 669.564 259.254 675.625 269.67C681.686 279.992 684.716 292.303 684.716 306.602C684.716 322.038 680.881 335.816 673.21 347.938C665.634 359.964 654.413 369.481 639.545 376.489C624.678 383.496 606.354 387 584.574 387H460.284ZM521.79 336.716H571.932C589.072 336.716 601.572 333.449 609.432 326.915C617.292 320.286 621.222 311.479 621.222 300.494C621.222 292.445 619.28 285.343 615.398 279.188C611.515 273.032 605.975 268.203 598.778 264.699C591.676 261.195 583.201 259.443 573.352 259.443H521.79V336.716ZM521.79 217.824H567.386C575.814 217.824 583.295 216.356 589.83 213.42C596.458 210.39 601.667 206.129 605.455 200.636C609.337 195.144 611.278 188.562 611.278 180.892C611.278 170.381 607.538 161.905 600.057 155.466C592.67 149.027 582.159 145.807 568.523 145.807H521.79V217.824ZM723.601 387V168.818H784.112V387H723.601ZM753.999 140.693C745.002 140.693 737.285 137.71 730.845 131.744C724.5 125.684 721.328 118.439 721.328 110.011C721.328 101.678 724.5 94.5284 730.845 88.5625C737.285 82.5019 745.002 79.4716 753.999 79.4716C762.995 79.4716 770.665 82.5019 777.01 88.5625C783.449 94.5284 786.669 101.678 786.669 110.011C786.669 118.439 783.449 125.684 777.01 131.744C770.665 137.71 762.995 140.693 753.999 140.693ZM833.722 387V96.0909H1026.34V146.801H895.227V216.119H1013.55V266.83H895.227V387H833.722ZM1149.13 391.261C1127.07 391.261 1107.99 386.574 1091.89 377.199C1075.89 367.729 1063.53 354.566 1054.82 337.71C1046.1 320.759 1041.75 301.11 1041.75 278.761C1041.75 256.223 1046.1 236.527 1054.82 219.67C1063.53 202.72 1075.89 189.557 1091.89 180.182C1107.99 170.712 1127.07 165.977 1149.13 165.977C1171.2 165.977 1190.23 170.712 1206.24 180.182C1222.33 189.557 1234.74 202.72 1243.45 219.67C1252.16 236.527 1256.52 256.223 1256.52 278.761C1256.52 301.11 1252.16 320.759 1243.45 337.71C1234.74 354.566 1222.33 367.729 1206.24 377.199C1190.23 386.574 1171.2 391.261 1149.13 391.261ZM1149.42 344.386C1159.46 344.386 1167.84 341.545 1174.56 335.864C1181.28 330.087 1186.35 322.227 1189.76 312.284C1193.26 302.341 1195.01 291.025 1195.01 278.335C1195.01 265.646 1193.26 254.33 1189.76 244.386C1186.35 234.443 1181.28 226.583 1174.56 220.807C1167.84 215.03 1159.46 212.142 1149.42 212.142C1139.29 212.142 1130.76 215.03 1123.85 220.807C1117.03 226.583 1111.87 234.443 1108.37 244.386C1104.96 254.33 1103.25 265.646 1103.25 278.335C1103.25 291.025 1104.96 302.341 1108.37 312.284C1111.87 322.227 1117.03 330.087 1123.85 335.864C1130.76 341.545 1139.29 344.386 1149.42 344.386ZM1400.13 387H1297V96.0909H1400.98C1430.24 96.0909 1455.43 101.915 1476.55 113.562C1497.67 125.116 1513.91 141.735 1525.27 163.42C1536.73 185.106 1542.46 211.053 1542.46 241.261C1542.46 271.564 1536.73 297.606 1525.27 319.386C1513.91 341.167 1497.57 357.881 1476.26 369.528C1455.05 381.176 1429.67 387 1400.13 387ZM1358.51 334.301H1397.57C1415.75 334.301 1431.05 331.081 1443.45 324.642C1455.95 318.108 1465.33 308.023 1471.58 294.386C1477.92 280.655 1481.09 262.947 1481.09 241.261C1481.09 219.765 1477.92 202.199 1471.58 188.562C1465.33 174.926 1456 164.888 1443.59 158.449C1431.19 152.009 1415.89 148.79 1397.71 148.79H1358.51V334.301ZM1686.31 391.261C1663.87 391.261 1644.55 386.716 1628.36 377.625C1612.26 368.439 1599.86 355.466 1591.14 338.705C1582.43 321.848 1578.08 301.915 1578.08 278.903C1578.08 256.46 1582.43 236.763 1591.14 219.812C1599.86 202.862 1612.12 189.652 1627.93 180.182C1643.84 170.712 1662.5 165.977 1683.9 165.977C1698.29 165.977 1711.69 168.297 1724.1 172.938C1736.6 177.483 1747.49 184.348 1756.77 193.534C1766.14 202.72 1773.44 214.273 1778.64 228.193C1783.85 242.019 1786.46 258.212 1786.46 276.773V293.392H1602.22V255.892H1729.5C1729.5 247.18 1727.6 239.462 1723.81 232.739C1720.03 226.015 1714.77 220.759 1708.05 216.972C1701.42 213.089 1693.7 211.148 1684.89 211.148C1675.71 211.148 1667.56 213.278 1660.46 217.54C1653.45 221.706 1647.96 227.341 1643.98 234.443C1640.01 241.451 1637.97 249.263 1637.88 257.881V293.534C1637.88 304.33 1639.87 313.657 1643.84 321.517C1647.91 329.377 1653.64 335.438 1661.03 339.699C1668.42 343.96 1677.18 346.091 1687.31 346.091C1694.03 346.091 1700.19 345.144 1705.77 343.25C1711.36 341.356 1716.14 338.515 1720.12 334.727C1724.1 330.939 1727.13 326.299 1729.21 320.807L1785.18 324.5C1782.34 337.947 1776.51 349.689 1767.71 359.727C1758.99 369.67 1747.72 377.436 1733.9 383.023C1720.17 388.515 1704.31 391.261 1686.31 391.261Z" fill="#FFFFFE"/>
</svg>
